<?xml version="1.0" encoding="UTF-8" standalone="no"?>
<!-- Created with Inkscape (http://www.inkscape.org/) -->

<svg
   xmlns:dc="http://purl.org/dc/elements/1.1/"
   xmlns:cc="http://creativecommons.org/ns#"
   xmlns:rdf="http://www.w3.org/1999/02/22-rdf-syntax-ns#"
   xmlns:svg="http://www.w3.org/2000/svg"
   xmlns="http://www.w3.org/2000/svg"
   xmlns:sodipodi="http://sodipodi.sourceforge.net/DTD/sodipodi-0.dtd"
   xmlns:inkscape="http://www.inkscape.org/namespaces/inkscape"
   width="381.73868"
   height="380.19205"
   id="svg2"
   version="1.1"
   inkscape:version="0.48.3.1 r9886"
   sodipodi:docname="feuille arbre.svg">
  <defs
     id="defs4" />
  <sodipodi:namedview
     id="base"
     pagecolor="#ffffff"
     bordercolor="#666666"
     borderopacity="1.0"
     inkscape:pageopacity="0.0"
     inkscape:pageshadow="2"
     inkscape:zoom="0.35"
     inkscape:cx="172.99055"
     inkscape:cy="34.319256"
     inkscape:document-units="px"
     inkscape:current-layer="layer1"
     showgrid="false"
     fit-margin-top="5"
     fit-margin-right="5"
     fit-margin-bottom="5"
     fit-margin-left="5"
     inkscape:window-width="1855"
     inkscape:window-height="1056"
     inkscape:window-x="65"
     inkscape:window-y="24"
     inkscape:window-maximized="1" />
  <metadata
     id="metadata7">
    <rdf:RDF>
      <cc:Work
         rdf:about="">
        <dc:format>image/svg+xml</dc:format>
        <dc:type
           rdf:resource="http://purl.org/dc/dcmitype/StillImage" />
        <dc:title></dc:title>
      </cc:Work>
    </rdf:RDF>
  </metadata>
  <g
     inkscape:label="Calque 1"
     inkscape:groupmode="layer"
     id="layer1"
     transform="translate(-202.00945,-100.77512)">
    <path
       inkscape:connector-curvature="0"
       id="path3183"
       d="m 387.74813,475.3972 c 0,-0.20783 0.63875,-1.90661 1.41944,-3.77507 1.24677,-2.98393 1.1952,-5.15804 -0.4239,-17.87212 -1.01384,-7.96121 -2.31804,-22.03995 -2.89823,-31.2861 -0.58018,-9.24614 -1.35422,-17.2955 -1.72008,-17.88748 -0.4447,-0.71953 -3.84938,-0.86961 -10.27121,-0.45273 -38.65333,2.50918 -41.76013,2.94079 -58.10602,8.0724 -6.72707,2.11189 -11.34514,2.79451 -22.14057,3.2727 -7.50233,0.33233 -14.43915,0.2978 -15.41517,-0.0767 -1.57341,-0.60377 -1.41906,-1.04776 1.36164,-3.91672 3.92441,-4.04896 5.72865,-8.83293 4.32232,-11.46069 -1.84973,-3.45629 -12.33078,-7.9811 -27.12821,-11.71166 -7.975,-2.01056 -14.9165,-4.06585 -15.42555,-4.56731 -0.5633,-0.55489 1.29578,-3.24056 4.75,-6.86195 5.44471,-5.7082 6.15849,-7.161 5.69858,-11.59868 -0.41219,-3.9772 -5.37794,-8.6774 -18.08111,-17.11421 -7.11806,-4.72746 -12.94192,-8.93072 -12.94192,-9.34057 0,-0.40985 2.93301,-1.99173 6.5178,-3.51529 12.23109,-5.19828 13.33118,-7.39207 9.57062,-19.08576 -2.88445,-8.96935 -6.9527,-24.25852 -8.10081,-30.44417 -1.69301,-9.12133 -8.18023,-32.15418 -10.60564,-37.65523 -1.25011,-2.83538 -4.34609,-7.4895 -6.87996,-10.3425 -2.53386,-2.85299 -4.43503,-5.70814 -4.22482,-6.34476 1.49238,-4.51973 52.91376,2.35165 65.56191,8.76096 2.77314,1.40526 8.55631,3.94979 12.85149,5.65452 4.29517,1.70473 10.48777,4.92619 13.76133,7.15881 13.99678,9.54602 17.99779,9.5506 19.02122,0.0218 0.78929,-7.34882 3.1591,-16.36392 5.97918,-22.7456 1.21716,-2.75438 3.27008,-10.11374 4.56203,-16.35415 2.01726,-9.74381 2.18211,-11.97015 1.16732,-15.76435 -2.34847,-8.78065 -1.79405,-9.03113 7.53527,-3.40435 6.34242,3.82529 12.69756,5.93371 13.9899,4.64138 0.33747,-0.33748 0.059,-2.4648 -0.61893,-4.72738 -1.15384,-3.85115 -0.95824,-4.91914 3.0638,-16.72884 2.3693,-6.95684 5.73516,-14.64583 7.50421,-17.14267 3.86092,-5.44932 8.93439,-13.78872 17.35543,-28.52761 9.39474,-16.44312 16.85304,-26.5 19.6527,-26.5 0.91632,0 1.26591,1.70296 1.20711,5.88014 -0.0455,3.23408 0.68017,8.50459 1.61266,11.71223 2.68965,9.25206 12.26117,27.9614 20.28847,39.65763 6.78962,9.89285 7.63324,10.75 10.58029,10.75 1.76132,0 4.26858,-0.74678 5.57168,-1.65951 2.21566,-1.55191 2.45164,-1.54688 3.6394,0.0775 0.74198,1.01472 1.56736,6.71724 1.98497,13.71411 0.58628,9.82291 1.10096,12.55185 2.86157,15.17253 5.13856,7.64878 7.81477,13.18761 9.53174,19.72741 1.0103,3.84813 2.35951,7.62631 2.99825,8.39594 0.63874,0.76964 2.25675,4.92571 3.59557,9.2357 1.92661,6.20223 2.46202,10.23447 2.56754,19.33636 0.22588,19.48411 1.02577,20.51206 11.14554,14.3233 3.43813,-2.10259 7.97152,-4.6032 10.07419,-5.55691 2.10268,-0.95371 6.37768,-3.26621 9.5,-5.1389 6.23193,-3.73774 16.09005,-7.30075 29.17696,-10.5454 36.55564,-9.06327 44.73333,-11.49959 53.25,-15.86438 0.4125,-0.21141 0.75,1.27144 0.75,3.29522 0,2.36937 -1.75598,7.29511 -4.93145,13.83333 -2.71229,5.58456 -6.3325,14.42874 -8.0449,19.65374 -3.43083,10.46839 -7.16673,20.34844 -13.40907,35.46188 -3.05257,7.39064 -5.34059,11.24697 -8.86458,14.94073 -2.6125,2.73837 -4.75,5.27328 -4.75,5.63313 0,0.35986 0.82293,1.39903 1.82874,2.30927 1.28581,1.16365 3.6609,1.65499 8,1.65499 3.39419,0 6.17126,0.24735 6.17126,0.54966 0,1.51342 -3.58271,7.13848 -6.8881,10.8147 -6.74953,7.50677 -17.19458,21.57436 -18.23521,24.55953 -0.71299,2.04526 -0.69323,3.55039 0.0652,4.96751 1.37134,2.56237 8.40134,7.41131 13.2734,9.15533 2.04341,0.73146 3.93706,1.90786 4.20812,2.61423 0.47317,1.23306 -2.92591,4.33903 -4.7485,4.33903 -0.48404,0 -6.12142,2.25945 -12.52749,5.021 -22.42109,9.66529 -27.14742,12.76207 -27.14742,17.78741 0,3.25691 5.09672,10.55706 10.10965,14.48026 1.78049,1.39344 2.85515,2.95922 2.46468,3.59102 -1.27026,2.05532 -34.24207,0.75396 -48.07433,-1.89745 -18.48206,-3.54268 -24.87767,-5.11828 -30.5629,-7.52935 -3.54041,-1.50147 -11.6878,-4.19277 -18.10532,-5.98068 -6.41751,-1.78791 -14.23439,-4.42559 -17.37084,-5.8615 -3.13644,-1.43591 -6.77325,-2.61075 -8.08178,-2.61075 -2.23644,0 -2.37916,0.35356 -2.37916,5.89405 0,8.70525 1.761,24.99513 4.17344,38.60595 3.1677,17.87186 3.35082,21.26322 1.27214,23.56013 -1.47599,1.63095 -8.44558,2.91996 -8.44558,1.56199 z"
       style="fill:#7ba813" />
  </g>
</svg>
