<?xml version="1.0" encoding="utf-8"?>
<!-- Generator: Adobe Illustrator 16.0.4, SVG Export Plug-In . SVG Version: 6.00 Build 0)  -->
<!DOCTYPE svg PUBLIC "-//W3C//DTD SVG 1.1//EN" "http://www.w3.org/Graphics/SVG/1.1/DTD/svg11.dtd">
<svg version="1.1" id="Layer_1" xmlns="http://www.w3.org/2000/svg" xmlns:xlink="http://www.w3.org/1999/xlink" x="0px" y="0px"
	 width="612px" height="792px" viewBox="0 0 612 792" enable-background="new 0 0 612 792" xml:space="preserve">
<g>
	<path fill="#FFFFFF" d="M119.054,412.371c-0.168-1.869-0.293-3.701-0.505-5.524c-0.412-3.561-1.473-6.91-3.144-10.101
		c-1.672-3.194-3.903-5.891-6.837-7.925c-3.875-2.687-8.291-3.909-12.969-4.104c-1.987-0.083-3.987,0.043-5.975,0.169
		c-1.602,0.102-3.195,0.346-4.809,0.529c0.809,1.255,1.708,2.341,2.27,3.581c1.331,2.939,2.544,5.934,3.729,8.936
		c1.825,4.623,3.659,9.232,7.241,12.857c1.494,1.513,3.158,2.77,5.147,3.621c1.911,0.818,3.874,1.295,6.165,1.463
		c-0.25-1.49-0.313-2.996-0.763-4.375c-2.651-8.129-7.326-14.858-14.192-20.037c0.216,0.023,0.4,0.079,0.574,0.156
		c4.836,2.139,8.417,5.787,11.452,9.941c4.104,5.615,7.01,11.883,9.295,18.439c0.473,1.357,0.915,2.726,1.414,4.072
		c0.265,0.716,0.728,1.269,1.595,1.258c0.857-0.012,1.284-0.568,1.587-1.275c0.045-0.105,0.117-0.201,0.157-0.309
		c1.12-3.023,2.178-6.073,3.371-9.068c1.769-4.441,3.95-8.693,6.374-12.808c1.539-2.611,3.237-5.133,4.944-7.641
		c2.514-3.693,5.351-7.142,8.493-10.308c2.096-2.111,4.378-4.046,6.652-5.971c2.702-2.286,5.68-4.18,8.803-5.845
		c3.457-1.843,7.078-3.268,10.859-4.284c0.475-0.127,0.969-0.181,1.449-0.29c0.438-0.1,0.87-0.228,1.304-0.344
		c-17.459,6.831-30.237,18.513-37.772,35.847c2.208,0.018,4.328-0.162,6.449-0.312c3.136-0.22,6.044-1.243,8.816-2.628
		c3.361-1.68,6.31-3.943,8.755-6.811c1.604-1.882,3.232-3.756,4.68-5.756c3.188-4.403,6.229-8.913,9.409-13.322
		c1.711-2.374,3.731-4.488,6.106-6.229c1.034-0.759,2.092-1.483,3.177-2.25c-0.302-0.12-0.569-0.216-0.829-0.331
		c-3.983-1.749-8.162-2.815-12.482-3.089c-2.464-0.157-4.971,0.077-7.439,0.324c-3.647,0.365-7.092,1.544-10.39,3.103
		c-4.597,2.172-8.622,5.187-12.238,8.732c-1.478,1.449-2.804,3.059-4.139,4.646c-2.92,3.47-5.324,7.288-7.457,11.281
		c-3.027,5.666-5.365,11.609-7.134,17.779C119.847,409.568,119.452,410.969,119.054,412.371z"/>
	<path fill="#B7D87E" d="M85.235,413.715c-2.73-5.219-4.276-11.156-4.276-17.455c0-19.278,14.463-35.177,33.129-37.442l4.86-4.478
		l-5.011-4.616c-23.604,2.376-42.031,22.304-42.031,46.536c0,8.222,2.125,15.948,5.851,22.662l1.583-7.048L85.235,413.715z"/>
	<path fill="#B7D87E" d="M150.509,416.508c-6.696,10.504-18.449,17.473-31.83,17.473c-12.403,0-23.408-5.988-30.283-15.229
		l-6.206-1.939l-1.509,6.724c8.49,11.807,22.345,19.497,37.998,19.497c17.109,0,32.069-9.188,40.225-22.896l-7.083,2.213
		L150.509,416.508z"/>
	<path fill="#FFFFFF" d="M114.088,358.818c1.505-0.183,3.037-0.279,4.591-0.279c0.464,0,0.925,0.012,1.385,0.028l4.588-4.227
		l-5.259-4.845c-0.238-0.003-0.475-0.009-0.714-0.009c-1.601,0-3.182,0.081-4.742,0.238l5.011,4.616L114.088,358.818z"/>
	<path fill="#FFFFFF" d="M88.396,418.752c-1.181-1.588-2.238-3.271-3.161-5.037l-5.896-1.841l-1.583,7.048
		c0.887,1.598,1.863,3.139,2.925,4.614l1.509-6.724L88.396,418.752z"/>
	<path fill="#FFFFFF" d="M154.672,417.41l-1.379-6.143c-0.793,1.826-1.725,3.578-2.785,5.24l1.312,5.842l7.083-2.213
		c0.925-1.555,1.763-3.167,2.506-4.832L154.672,417.41z"/>
	<g>
		<path fill-rule="evenodd" clip-rule="evenodd" fill="#53903D" d="M119.054,412.371c0.398-1.402,0.793-2.803,1.194-4.201
			c1.769-6.17,4.107-12.113,7.134-17.779c2.133-3.993,4.537-7.811,7.457-11.281c1.335-1.587,2.662-3.197,4.139-4.646
			c3.616-3.545,7.641-6.56,12.238-8.732c3.298-1.559,6.743-2.738,10.39-3.103c2.468-0.247,4.975-0.481,7.439-0.324
			c4.321,0.274,8.5,1.34,12.482,3.089c0.26,0.114,0.527,0.21,0.829,0.331c-1.084,0.767-2.143,1.491-3.177,2.25
			c-2.375,1.742-4.395,3.856-6.106,6.229c-3.18,4.409-6.221,8.919-9.409,13.322c-1.448,2-3.075,3.874-4.68,5.756
			c-2.445,2.868-5.394,5.131-8.755,6.811c-2.772,1.385-5.68,2.408-8.816,2.628c-2.121,0.149-4.241,0.329-6.449,0.312
			c7.536-17.334,20.313-29.016,37.772-35.847c-0.435,0.116-0.866,0.244-1.304,0.344c-0.48,0.109-0.974,0.163-1.449,0.29
			c-3.781,1.016-7.402,2.44-10.859,4.284c-3.123,1.665-6.101,3.559-8.803,5.845c-2.274,1.924-4.556,3.859-6.652,5.971
			c-3.143,3.166-5.979,6.615-8.493,10.308c-1.707,2.507-3.405,5.029-4.944,7.641c-2.424,4.114-4.605,8.366-6.374,12.808
			c-1.193,2.995-2.25,6.045-3.371,9.068c-0.04,0.107-0.111,0.203-0.157,0.309c-0.303,0.707-0.729,1.264-1.587,1.275
			c-0.867,0.011-1.33-0.542-1.595-1.258c-0.5-1.347-0.941-2.715-1.414-4.072c-2.285-6.557-5.192-12.824-9.295-18.439
			c-3.035-4.154-6.616-7.802-11.452-9.941c-0.174-0.077-0.358-0.133-0.574-0.156c6.866,5.179,11.541,11.908,14.192,20.037
			c0.45,1.379,0.513,2.885,0.763,4.375c-2.292-0.168-4.254-0.645-6.165-1.463c-1.989-0.852-3.653-2.108-5.147-3.621
			c-3.582-3.625-5.416-8.234-7.241-12.857c-1.185-3.002-2.398-5.997-3.729-8.936c-0.562-1.239-1.461-2.326-2.27-3.581
			c1.614-0.183,3.207-0.427,4.809-0.529c1.988-0.125,3.988-0.251,5.975-0.169c4.679,0.195,9.094,1.417,12.969,4.104
			c2.934,2.034,5.166,4.731,6.837,7.925c1.67,3.191,2.731,6.541,3.144,10.101C118.76,408.67,118.886,410.502,119.054,412.371z"/>
	</g>
	<path fill="#B7D87E" d="M151.261,362.733c-8.265-8.033-19.475-13.052-31.868-13.237l5.259,4.845l-4.588,4.227
		c8.744,0.316,16.72,3.616,22.963,8.901c2.267-1.648,4.597-3.042,7.029-4.191C150.461,363.086,150.861,362.908,151.261,362.733z"/>
	<path fill="#B7D87E" d="M161.05,395.044c-1.43,1.677-3.039,3.177-4.802,4.503c-0.356,4.133-1.373,8.076-2.955,11.721l1.379,6.143
		l6.737-2.105c2.597-5.816,4.042-12.262,4.042-19.044c0-2.056-0.141-4.077-0.402-6.061c-1.149,1.498-2.364,2.928-3.549,4.316
		L161.05,395.044z"/>
</g>
<g>
	<path fill="#53903D" d="M190.544,376.458h6.202v16.739h8.129v4.787h-14.331V376.458z"/>
	<path fill="#53903D" d="M207.257,377.963c0-1.596,1.265-2.8,2.95-2.8c1.686,0,2.98,1.204,2.98,2.8c0,1.595-1.294,2.77-2.98,2.77
		C208.521,380.733,207.257,379.559,207.257,377.963z M207.528,382.238h5.389v15.745h-5.389V382.238z"/>
	<path fill="#53903D" d="M214.905,382.238h5.75l3.281,10.146l3.221-10.146h5.148l-5.75,15.745h-5.871L214.905,382.238z"/>
	<path fill="#53903D" d="M233.996,377.963c0-1.596,1.265-2.8,2.95-2.8c1.686,0,2.98,1.204,2.98,2.8c0,1.595-1.294,2.77-2.98,2.77
		C235.261,380.733,233.996,379.559,233.996,377.963z M234.267,382.238h5.389v15.745h-5.389V382.238z"/>
	<path fill="#53903D" d="M243,382.238h5.389v2.529c0.843-1.626,2.559-2.95,5.178-2.95c3.041,0,5.148,1.896,5.148,5.931v10.236
		h-5.389v-9.152c0-1.776-0.692-2.649-2.258-2.649c-1.596,0-2.68,0.963-2.68,2.98v8.821H243V382.238z"/>
	<path fill="#53903D" d="M260.917,397.983h5.359c0.241,1.144,0.933,2.048,2.89,2.048c2.378,0,3.341-1.355,3.341-3.312v-2.408
		c-0.812,1.505-2.529,2.891-4.877,2.891c-3.673,0-6.684-2.71-6.684-7.557v-0.241c0-4.636,2.98-7.586,6.684-7.586
		c2.499,0,3.974,1.054,4.877,2.649v-2.228h5.389v14.42c0,4.697-3.101,7.166-8.73,7.166
		C263.807,403.824,261.338,401.566,260.917,397.983z M272.658,389.614v-0.211c0-2.167-1.114-3.552-3.101-3.552
		c-2.017,0-3.101,1.415-3.101,3.583v0.241c0,2.167,1.144,3.552,3.071,3.552S272.658,391.842,272.658,389.614z"/>
	<path fill="#53903D" d="M285.698,382.238h5.63l2.288,9.423l2.649-9.423h4.335l2.348,9.423l2.559-9.423h5.117l-4.997,15.745h-5.148
		l-2.348-8.791l-2.438,8.791h-5.238L285.698,382.238z"/>
	<path fill="#53903D" d="M312.347,377.963c0-1.596,1.265-2.8,2.95-2.8s2.98,1.204,2.98,2.8c0,1.595-1.295,2.77-2.98,2.77
		S312.347,379.559,312.347,377.963z M312.617,382.238h5.39v15.745h-5.39V382.238z"/>
	<path fill="#53903D" d="M322.073,392.926v-7.015h-1.897v-3.673h1.897v-3.282h5.389v3.282h3.101v3.673h-3.101v6.503
		c0,1.144,0.571,1.656,1.596,1.656c0.603,0,1.054-0.09,1.535-0.271v4.094c-0.692,0.182-1.716,0.452-2.98,0.452
		C324.061,398.345,322.073,396.628,322.073,392.926z"/>
	<path fill="#53903D" d="M333.064,375.314h5.389v9.453c0.843-1.626,2.559-2.95,5.178-2.95c3.041,0,5.148,1.896,5.148,5.931v10.236
		h-5.389v-9.152c0-1.776-0.693-2.649-2.258-2.649c-1.596,0-2.68,0.963-2.68,2.98v8.821h-5.389V375.314z"/>
	<path fill="#53903D" d="M358.268,376.458h6.201v16.739h8.129v4.787h-14.33V376.458z"/>
	<path fill="#53903D" d="M373.957,390.307v-0.241c0-5.058,3.762-8.249,8.52-8.249c4.305,0,8.008,2.468,8.008,8.128v1.415h-11.078
		c0.15,2.077,1.354,3.281,3.281,3.281c1.775,0,2.527-0.813,2.738-1.867h5.059c-0.482,3.553-3.221,5.57-7.979,5.57
		C377.568,398.345,373.957,395.455,373.957,390.307z M385.246,388.319c-0.09-1.896-1.023-2.95-2.77-2.95
		c-1.627,0-2.74,1.054-3.012,2.95H385.246z"/>
	<path fill="#53903D" d="M391.902,392.986h4.969c0.18,1.144,0.691,1.776,2.227,1.776c1.324,0,1.928-0.512,1.928-1.294
		c0-0.753-0.754-1.114-2.92-1.415c-4.215-0.542-5.992-1.776-5.992-5.058c0-3.492,3.102-5.178,6.744-5.178
		c3.883,0,6.594,1.324,6.955,5.087h-4.879c-0.209-1.053-0.781-1.565-2.016-1.565c-1.174,0-1.777,0.512-1.777,1.234
		c0,0.753,0.723,1.054,2.65,1.295c4.365,0.542,6.473,1.686,6.473,5.058c0,3.733-2.77,5.419-7.135,5.419
		C394.643,398.345,392.023,396.478,391.902,392.986z"/>
	<path fill="#53903D" d="M407.5,392.986h4.969c0.18,1.144,0.691,1.776,2.227,1.776c1.324,0,1.928-0.512,1.928-1.294
		c0-0.753-0.754-1.114-2.92-1.415c-4.215-0.542-5.992-1.776-5.992-5.058c0-3.492,3.102-5.178,6.744-5.178
		c3.883,0,6.594,1.324,6.955,5.087h-4.879c-0.209-1.053-0.781-1.565-2.016-1.565c-1.174,0-1.777,0.512-1.777,1.234
		c0,0.753,0.723,1.054,2.65,1.295c4.365,0.542,6.473,1.686,6.473,5.058c0,3.733-2.77,5.419-7.135,5.419
		C410.24,398.345,407.621,396.478,407.5,392.986z"/>
	<path fill="#53903D" d="M430.475,376.458h8.189c5.9,0,8.641,2.619,8.641,7.195v0.12c0,4.516-3.041,6.955-8.369,6.955h-2.318v7.255
		h-6.143V376.458z M438.393,386.513c1.988,0,3.041-0.933,3.041-2.709v-0.121c0-1.836-1.084-2.589-3.01-2.589h-1.807v5.419H438.393z"
		/>
	<path fill="#53903D" d="M449.777,375.314h5.357v22.669h-5.357V375.314z"/>
	<path fill="#53903D" d="M457.576,393.618c0-3.703,3.131-5.148,8.369-5.148h1.506v-0.361c0-1.505-0.361-2.499-2.078-2.499
		c-1.475,0-2.018,0.873-2.137,1.867h-5.059c0.24-3.793,3.221-5.66,7.527-5.66c4.334,0,7.104,1.776,7.104,5.961v10.206h-5.238v-1.836
		c-0.752,1.144-2.137,2.198-4.666,2.198C460.074,398.345,457.576,396.96,457.576,393.618z M467.451,392.474v-0.963h-1.416
		c-2.168,0-3.131,0.421-3.131,1.716c0,0.903,0.602,1.475,1.867,1.475C466.307,394.702,467.451,393.829,467.451,392.474z"/>
	<path fill="#53903D" d="M474.83,392.986h4.969c0.18,1.144,0.691,1.776,2.227,1.776c1.324,0,1.928-0.512,1.928-1.294
		c0-0.753-0.754-1.114-2.92-1.415c-4.215-0.542-5.992-1.776-5.992-5.058c0-3.492,3.102-5.178,6.744-5.178
		c3.883,0,6.594,1.324,6.955,5.087h-4.879c-0.209-1.053-0.781-1.565-2.016-1.565c-1.174,0-1.777,0.512-1.777,1.234
		c0,0.753,0.723,1.054,2.65,1.295c4.365,0.542,6.473,1.686,6.473,5.058c0,3.733-2.77,5.419-7.135,5.419
		C477.57,398.345,474.951,396.478,474.83,392.986z"/>
	<path fill="#53903D" d="M492.115,392.926v-7.015h-1.896v-3.673h1.896v-3.282h5.389v3.282h3.1v3.673h-3.1v6.503
		c0,1.144,0.572,1.656,1.596,1.656c0.602,0,1.053-0.09,1.535-0.271v4.094c-0.693,0.182-1.717,0.452-2.98,0.452
		C494.102,398.345,492.115,396.628,492.115,392.926z"/>
	<path fill="#53903D" d="M502.984,377.963c0-1.596,1.264-2.8,2.951-2.8c1.686,0,2.98,1.204,2.98,2.8c0,1.595-1.295,2.77-2.98,2.77
		C504.248,380.733,502.984,379.559,502.984,377.963z M503.256,382.238h5.389v15.745h-5.389V382.238z"/>
	<path fill="#53903D" d="M511.145,390.307v-0.241c0-5.238,3.764-8.249,8.4-8.249c3.854,0,7.404,1.686,7.707,6.473h-5.059
		c-0.24-1.475-0.963-2.288-2.529-2.288c-1.896,0-3.01,1.354-3.01,4.004v0.241c0,2.74,1.053,4.155,3.102,4.155
		c1.504,0,2.559-0.903,2.738-2.619h4.848c-0.15,3.974-2.83,6.563-7.918,6.563C514.727,398.345,511.145,395.605,511.145,390.307z"/>
</g>
<g>
	<g>
		<path fill="#B7D87E" d="M190.936,408.294h4.787l9.062,15.564v-15.564h3.643v21.525h-4.154l-9.694-16.498v16.498h-3.643V408.294z"
			/>
		<path fill="#B7D87E" d="M213.37,408.294h13.457v3.161h-9.453v5.9h7.586v3.011h-7.586v6.292h9.965v3.161H213.37V408.294z"/>
		<path fill="#B7D87E" d="M229.269,408.294h4.094l3.733,15.806l4.185-15.806h3.312l4.275,15.896l3.854-15.896h3.733l-5.389,21.525
			h-4.004l-4.245-15.685l-4.365,15.685h-3.823L229.269,408.294z"/>
		<path fill="#B7D87E" d="M265.192,408.294h4.094l3.733,15.806l4.185-15.806h3.312l4.275,15.896l3.854-15.896h3.733l-5.389,21.525
			h-4.004l-4.245-15.685l-4.365,15.685h-3.823L265.192,408.294z"/>
		<path fill="#B7D87E" d="M295.635,408.294h13.457v3.161h-9.453v5.9h7.586v3.011h-7.586v6.292h9.964v3.161h-13.968V408.294z"/>
		<path fill="#B7D87E" d="M311.926,423.136h3.854c0.271,2.168,1.145,3.974,4.787,3.974c2.378,0,4.064-1.324,4.064-3.311
			c0-1.988-0.994-2.74-4.486-3.312c-5.148-0.692-7.586-2.258-7.586-6.292c0-3.522,3.01-6.171,7.496-6.171
			c4.636,0,7.406,2.107,7.827,6.231h-3.673c-0.392-2.258-1.686-3.222-4.154-3.222c-2.439,0-3.703,1.174-3.703,2.83
			c0,1.746,0.723,2.619,4.455,3.161c5.059,0.692,7.678,2.138,7.678,6.442c0,3.733-3.162,6.654-7.918,6.654
			C314.695,430.121,312.227,427.2,311.926,423.136z"/>
		<path fill="#B7D87E" d="M336.015,411.455h-5.991v-3.161h16.016v3.161h-5.99v18.364h-4.034V411.455z"/>
	</g>
</g>
</svg>
